<svg width="503px" height="88px" viewBox="0 0 503 88" version="1.1" xmlns="http://www.w3.org/2000/svg" xmlns:xlink="http://www.w3.org/1999/xlink">
    <g id="Page-1" stroke="none" stroke-width="1" fill="none" fill-rule="evenodd">
        <g id="Desktop-HD" transform="translate(-469.000000, -196.000000)" fill="#FFFFFF">
            <g id="Group" transform="translate(469.000000, 196.000000)">
                <g id="Page-1">
                    <path d="M416.327857,76.2752907 L400.959875,76.2752907 L400.959875,54.9881726 L415.890019,54.9881726 L415.890019,59.7823941 L406.656036,59.7823941 L406.656036,64.7295738 L414.357258,64.7295738 L414.357258,69.2635038 L406.656036,69.2635038 L406.656036,71.4886186 L416.327857,71.4886186 L416.327857,76.2752907 Z M374.993195,76.5582305 C369.014442,76.5582305 363.912678,72.0544982 363.912678,65.6315675 C363.912678,59.2165145 368.98359,54.7433082 374.67975,54.7433082 C379.280659,54.7433082 382.098052,56.6854832 383.881568,59.3084207 L379.594104,62.2215191 C378.779804,60.9673277 377.464649,59.6904879 374.773619,59.6904879 C371.642783,59.6904879 369.732903,62.2825711 369.732903,65.6315675 C369.732903,68.9805639 371.705471,71.6110508 374.960702,71.6110508 C377.715077,71.6110508 379.060756,70.364737 379.968925,68.6670981 L384.351571,71.4886186 C382.252969,75.0214274 379.311183,76.5582305 374.993195,76.5582305 L374.993195,76.5582305 Z M346.834042,76.5887565 C346.834042,76.8411703 346.738532,76.9327483 346.394563,76.6498084 L333.029674,65.6624217 L333.029674,76.2752907 L327.677482,76.2752907 L327.677482,54.7127822 C327.677482,54.5217486 327.77168,54.3687904 328.11532,54.6441808 L341.482179,65.6624217 L341.482179,54.9881726 L346.834042,54.9881726 L346.834042,76.5887565 Z M310.509244,76.2752907 L295.141591,76.2752907 L295.141591,54.9881726 L310.071406,54.9881726 L310.071406,59.7823941 L300.837423,59.7823941 L300.837423,64.7295738 L308.538645,64.7295738 L308.538645,69.2635038 L300.837423,69.2635038 L300.837423,71.4886186 L310.509244,71.4886186 L310.509244,76.2752907 Z M277.99961,76.2752907 L271.833447,76.2752907 L268.861138,71.3970406 L266.731683,71.3970406 L266.731683,76.2752907 L261.035522,76.2752907 L261.035522,54.9881726 L269.111565,54.9881726 C274.837921,54.9881726 278.062628,58.6201088 278.062628,63.3529501 C278.062628,66.419335 276.717277,68.85846 274.213001,70.2347554 L277.99961,76.2752907 Z M243.867284,76.2752907 L228.499303,76.2752907 L228.499303,54.9881726 L243.429447,54.9881726 L243.429447,59.7823941 L234.195463,59.7823941 L234.195463,64.7295738 L241.896685,64.7295738 L241.896685,69.2635038 L234.195463,69.2635038 L234.195463,71.4886186 L243.867284,71.4886186 L243.867284,76.2752907 Z M211.26575,59.7823941 L202.502098,59.7823941 L202.502098,64.7295738 L210.233516,64.7295738 L210.233516,69.5159176 L202.502098,69.5159176 L202.502098,76.2752907 L196.805938,76.2752907 L196.805938,54.9881726 L211.26575,54.9881726 L211.26575,59.7823941 Z M178.695069,76.5887565 C178.695069,76.8411703 178.601199,76.9327483 178.255589,76.6498084 L164.8907,65.6624217 L164.8907,76.2752907 L159.538836,76.2752907 L159.538836,54.7127822 C159.538836,54.6779892 159.543431,54.6454938 159.550324,54.615296 L159.936304,54.615296 C159.950089,54.6254713 159.961577,54.6320361 159.976346,54.6441808 L173.341236,65.6624217 L173.341236,54.9881726 L178.695069,54.9881726 L178.695069,76.5887565 Z M131.037356,76.5582305 C124.901717,76.5582305 119.61287,72.0544982 119.61287,65.6315675 C119.61287,59.2165145 124.901717,54.7433082 131.037356,54.7433082 C137.171355,54.7433082 142.460201,59.2165145 142.460201,65.6315675 C142.460201,72.0544982 137.171355,76.5582305 131.037356,76.5582305 L131.037356,76.5582305 Z M95.148427,76.5582305 C89.1693457,76.5582305 84.0679097,72.0544982 84.0679097,65.6315675 C84.0679097,59.2165145 89.1388218,54.7433082 94.8349823,54.7433082 C99.4355632,54.7433082 102.253284,56.6854832 104.036801,59.3084207 L99.749008,62.2215191 C98.9350363,60.9673277 97.6198813,59.6904879 94.9288516,59.6904879 C91.7976865,59.6904879 89.8881352,62.2825711 89.8881352,65.6315675 C89.8881352,68.9805639 91.8607036,71.6110508 95.1159338,71.6110508 C97.8703089,71.6110508 99.2159878,70.364737 100.123829,68.6670981 L104.506804,71.4886186 C102.408201,75.0214274 99.4664154,76.5582305 95.148427,76.5582305 L95.148427,76.5582305 Z M168.088493,31.8258397 L178.092139,43.018046 L167.472763,43.018046 L168.088493,31.8258397 Z M196.57947,43.018046 L186.377254,43.018046 L195.966694,31.9059294 L196.57947,43.018046 Z M252.648988,27.0371983 L259.714787,43.018046 L245.800467,43.018046 L252.648988,27.0371983 Z M408.525545,28.0675325 L426.711247,43.018046 L408.525545,43.018046 L408.525545,28.0675325 Z M429.667802,28.0675325 L396.231291,0.499281822 C395.369072,-0.204128876 395.13407,0.185816019 395.13407,0.655850606 L395.13407,43.018046 L373.840834,43.018046 L373.840834,1.36320014 L359.58911,1.36320014 L359.58911,43.018046 L340.415482,43.018046 L340.415482,25.7163748 L317.159196,25.7163748 L317.159196,36.6811132 L327.730981,36.6811132 L327.730981,41.2229209 C326.233011,41.946354 324.458684,42.6326964 321.945874,43.018046 L314.068729,43.018046 C306.852936,41.5639585 303.140832,35.3149931 303.140832,27.9874428 C303.140832,19.6069099 307.917336,13.1078283 316.61075,13.1078283 C321.9357,13.1078283 325.693426,15.378568 328.356229,18.8270201 L338.301453,10.2098288 C333.681508,4.2611997 326.320644,0.736268534 316.924194,0.736268534 C301.575249,0.736268534 288.575662,11.9340548 288.575662,27.9874428 C288.575662,33.7007263 290.222642,38.8080854 293.048896,43.018046 L274.059397,43.018046 L253.745224,0.416566239 C253.510223,-0.131588622 253.04022,-0.131588622 252.805547,0.416566239 L232.429342,43.018046 L210.560418,43.018046 L208.10439,0.812747626 C208.025946,0.265905711 207.712502,0.342384802 207.399057,0.736268534 L182.262102,29.398203 L156.732603,0.736268534 C156.419159,0.342384802 156.105714,0.265905711 156.027599,0.812747626 L153.571571,43.018046 L133.011894,43.018046 L133.011894,1.36320014 L118.760169,1.36320014 L118.760169,43.018046 L99.8218716,43.018046 L75.6229538,43.018046 L75.6229538,37.0749969 L94.8884813,37.0749969 L94.8884813,25.7163748 L75.6229538,25.7163748 L75.6229538,13.344815 L98.7246509,13.344815 L98.7246509,1.36320014 L61.3712291,1.36320014 L61.3712291,43.018046 L61.3712291,54.615296 L61.3712291,87.6414622 L443.058949,87.6414622 L443.058949,55.3997811 C443.058949,55.3994529 443.059277,55.3994529 443.059277,55.3991246 L443.059277,1.36320014 L429.667802,1.36320014 L429.667802,28.0675325 Z" id="Fill-4"></path>
                    <path d="M131.037455,59.6905207 C127.46878,59.6905207 125.433194,62.2826039 125.433194,65.6316003 C125.433194,68.9805968 127.46878,71.6110836 131.037455,71.6110836 C134.60416,71.6110836 136.639746,68.9805968 136.639746,65.6316003 C136.639746,62.2826039 134.60416,59.6905207 131.037455,59.6905207" id="Fill-9"></path>
                    <path d="M268.828513,59.8128216 L266.731551,59.8128216 L266.731551,66.8551345 L268.828513,66.8551345 C271.395478,66.8551345 272.334171,65.4174589 272.334171,63.3531799 C272.334171,61.2810232 271.395478,59.8128216 268.828513,59.8128216" id="Fill-11"></path>
                    <polygon id="Fill-6" points="478.281209 42.6336155 478.281209 37.0749313 497.546408 37.0749313 497.546408 25.7163092 478.281209 25.7163092 478.281209 13.3447494 501.382906 13.3447494 501.382906 1.36313449 464.029484 1.36313449 464.029484 54.6152304 502.480127 54.6152304 502.480127 42.6336155"></polygon>
                    <path d="M19.8801399,31.0419783 L14.6333049,31.0419783 L14.6333049,13.4212613 L19.8801399,13.4212613 C26.3023106,13.4212613 28.6516691,17.1030895 28.6516691,22.2718288 C28.6516691,27.440568 26.3023106,31.0419783 19.8801399,31.0419783 M42.981837,22.2718288 C42.981837,10.4467827 34.9156405,1.36316732 20.5851444,1.36316732 L0.381580183,1.36316732 L0.381580183,54.6152632 L14.6333049,54.6152632 L14.6333049,42.3966616 L19.9582549,42.3966616 L27.397562,54.6152632 L42.8249506,54.6152632 L33.3500579,39.5026009 C39.6137011,36.0541488 42.981837,29.9446839 42.981837,22.2718288" id="Fill-1"></path>
                </g>
            </g>
        </g>
    </g>
</svg>