<svg version="1.1" id="Layer_1" xmlns="http://www.w3.org/2000/svg" xmlns:xlink="http://www.w3.org/1999/xlink" x="0px" y="0px"
     viewBox="0 0 612 792" style="enable-background:new 0 0 612 792;" xml:space="preserve">
<style type="text/css">
    .st-mark-0{display:none;}
    .st-mark-1{display:inline;}
    .st-mark-2{fill:#FE7E17;}
    .st-mark-3{fill:#EF6222;}
</style>
<g class="st-mark-0">
    <g class="st-mark-1">
        <polygon class="st-mark-2" points="222.8,147.3 48.2,247.8 48.2,326.3 222.8,225.2 397.4,326.3 397.4,247.8        "/>
    </g>
    <g class="st-mark-1">
        <polygon class="st-mark-2" points="394.2,650.4 219.6,549.9 219.6,471.3 394.2,572.4 568.8,471.3 568.8,549.9      "/>
    </g>
    <g class="st-mark-1">
        <polygon class="st-mark-2" points="48.2,347 222.8,246.5 290.5,285.1 115.9,386.3 115.9,587.3 48.2,548.6      "/>
    </g>
    <g class="st-mark-1">
        <polygon class="st-mark-2" points="483.1,198.2 308.5,97 240.9,136.3 415.4,236.8 415.4,438.4 483.1,399.1         "/>
    </g>
    <g class="st-mark-1">
        <polygon class="st-mark-2" points="134.6,598.8 134.6,397.9 202.2,358.6 202.2,560.2 376.8,660.7 309.1,700        "/>
    </g>
    <g class="st-mark-1">
        <polygon class="st-mark-2" points="568.8,450.7 568.8,249 501.1,210.4 501.1,411.4 326.5,512.5 394.2,551.2        "/>
    </g>
</g>
<g>
    <path class="st-mark-3" d="M607,396c0-165.9-135.1-301-301-301c-44.7,0-87.2,9.9-125.4,27.5l-17.2-28.3L115.1,208l117.2-0.3l-17.2-28.3
        c27.9-11.7,58.5-18.3,90.8-18.3c129.5,0,234.8,105.3,234.8,234.8c0,24.7-3.9,48.5-11,70.8H382l-9.3-14.8
        c30.5-16.8,46.8-46.5,46.8-83.8c0-57.5-39.2-101.6-108.9-101.6h-28.9h-69.3H38v0h-3.6C15.5,305.7,5,349.7,5,396
        c0,166,135,301,301,301c44.7,0,87.1-9.9,125.3-27.5l17.2,28.3L496.8,584l-50.1,0.1l0-0.2c-0.1,0.1-0.2,0.1-0.2,0.2l-66.8,0.2
        l17.1,28.2c-27.9,11.7-58.5,18.3-90.7,18.3C176.5,630.8,71.2,525.5,71.2,396c0-24.7,3.9-48.4,11-70.8h130.3v200.2h69.3V466h25.9
        l36.2,59.4h75h145.8v-0.1h13.2C596.5,486.2,607,442.3,607,396z M307.2,410.8h-25.5v-85.7h25.5c31.2,0,42.6,17.9,42.6,43
        S338.4,410.8,307.2,410.8z"/>
</g>
</svg>